<svg xmlns="http://www.w3.org/2000/svg" viewBox="0 0 473.34 307.96"><defs><style>.cls-1{fill:#fc8300;}.cls-2{fill:#24ffff;}.cls-3,.cls-4{fill:none;stroke-miterlimit:10;}.cls-3{stroke:#000;}.cls-4{stroke:#24ffff;}</style></defs><g id="Capa_2" data-name="Capa 2"><g id="Layer_1" data-name="Layer 1"><path class="cls-1" d="M11.67,115C4.83,133.72-1.21,153.5.94,173.35A74.37,74.37,0,0,0,42.8,231.69c-18.84-15.15-27.36-42-20.69-65.24,5.33-18.57,21.85-35.07,41.17-34.82-5.1.65-9.49,4.19-12.24,8.53s-4.06,9.42-5,14.46c-1.94,10.26-2.42,21.4,2.51,30.6,2.8,5.23,7.18,9.47,11.9,13.06a77.89,77.89,0,0,0,27.07,13.27c-7.13-2.4-12.81-8.28-15.83-15.18s-3.53-14.71-2.41-22.15A52.91,52.91,0,0,1,133,130.43c-17.54,1.4-31.3,19.53-29.59,37,1,9.89,6,19,12.5,26.55s14.48,13.59,22.39,19.61c-9.52-8.25-9.75-22.72-8.84-35.28.59-8.21,1.47-16.77,5.87-23.73s13.39-11.73,21-8.67c11.68,4.67,16.39,20.09,26,30a147.64,147.64,0,0,1,6.35-73.15,33,33,0,0,1,7-11.36c-17.3,2-37.2-8.87-49.73-21S121.43,44.42,104.87,39c-21.16-6.9-45,2.49-60.75,18.22S19.3,94.05,11.67,115Z"/><path class="cls-2" d="M223,97.93c.71,1.48,4.4,2.55,6,2.71a30.89,30.89,0,0,1-5-7.18C223.11,94.81,222.25,96.49,223,97.93Z"/><path class="cls-1" d="M223,97.93c-.7-1.44.16-3.12,1-4.47a30.89,30.89,0,0,0,5,7.18C227.35,100.48,223.66,99.41,223,97.93Zm-34.3,4.89A147.64,147.64,0,0,0,182.3,176a174.14,174.14,0,0,0,7.62,29c3.69,10.47,8.32,20.86,15.83,29.05,5,5.44,11.06,9.73,17.1,14,16.38,11.53,32.88,23.12,51,31.64s38.2,13.86,58.17,12.17c14.26-1.21,28.47-6,42.6-3.7,13.29,2.13,24.76,10.2,35.69,18-8.31-13.74-17.84-28.49-33.08-33.56-11.17-3.71-23.47-1.42-34.54,2.58-7,2.53-14,5.78-21.42,6.39-8.69.73-17.24-2.19-25.29-5.54a223.92,223.92,0,0,1-93.65-73.31c8.41,7.18,18.61,11.87,28.67,16.46,28.7,13.09,59.28,26.42,90.6,22.63,20.37-2.47,40.94-12.11,60.58-6.2,7.85,2.36,14.75,7,22.08,10.71s15.7,6.39,23.65,4.4c-10.55-.12-19.91-7.14-26.35-15.49-4.24-5.5-8.43-12.26-15.3-13.25-2.77-.4-5.56.25-8.3.82-30.42,6.4-61.9,4-92.9,1.68-22.26-1.71-46.1-4-63.27-18.31-9.26-7.69-15.73-18.31-20.23-29.48-2.53-6.28-4.52-13.08-3.43-19.76.88-5.42,3.67-10.22,6.64-14.92,1-1.63,2.08-3.24,3.08-4.86,3.88-6.3,7.2-13.75,5.34-20.91-1.14-4.4-3.58-10.33.43-12.47,1.57-.84,3.48-.51,5.19-.07,6.52,1.68,17.21,5.42,22.54,9.53-3.91-7.61-8.55-14.07-13.87-21.28-1.6-2.17-3.53-4.46-6.2-4.87-2.15-.32-4.29.66-6.46.62a8,8,0,0,1-5.54-2.58h0c-4.91-.51-9.74,2.31-13.59,6.37A33,33,0,0,0,188.65,102.82Z"/><path class="cls-1" d="M241.36,113.2q1.3,2.51,2.49,5.22c-1.39-6-3.12-9.45-4.17-13.69a19.83,19.83,0,0,1-.31-5.55,178.24,178.24,0,0,1,3.83-29.65q1.62-7.56,3.9-15L232.89,73.71c-2.4-10.73-3-22.72,2.94-32A49.25,49.25,0,0,0,224.34,71.8,45,45,0,0,0,199.26,46a80,80,0,0,1,16.67,27.21,31.32,31.32,0,0,1-18.67-12.81l7.21,16.83a25.19,25.19,0,0,0,4.81,7.85h0a8,8,0,0,0,5.54,2.58c2.17,0,4.31-.94,6.46-.62,2.67.41,4.6,2.7,6.2,4.87C232.81,99.13,237.45,105.59,241.36,113.2Z"/><path class="cls-1" d="M243.85,118.42q-1.18-2.72-2.49-5.22c-5.33-4.11-16-7.85-22.54-9.53-1.71-.44-3.62-.77-5.19.07-4,2.14-1.57,8.07-.43,12.47,1.86,7.16-1.46,14.61-5.34,20.91-1,1.62-2.06,3.23-3.08,4.86,16-3.5,33.45-10.57,46.23-20.81,6.45-5.16,13-11.37,21.2-12,7.66-.62,14.86,3.85,20.4,9.19a62.53,62.53,0,0,1,18.85,41.53c9.86-21.06,8.27-45.44,6.48-68.62-.76-9.77-1.57-19.74-5.48-28.72-2.77-6.36-8-12.57-14.93-12.84,10.75-2.21,22.06.68,31.7,5.93s17.86,12.72,25.82,20.27c9.5,9,19.33,19.36,20.68,32.39s-6,25-13.12,35.92A82.86,82.86,0,0,0,387.69,86c.1-10.1-1.82-20.52-7.52-28.85S364.48,43,354.45,44.2c10.21-5.87,23-2.4,34.16,1.45,16.9,5.86,33.73,12.4,48.75,22.12S465.6,90.66,472.85,107a180.65,180.65,0,0,0-33.24-67.33c-8.79-11.11-19.25-21.42-32.32-26.9-9.18-3.85-19.19-5.13-29.06-6.38l-25-3.16c-16-2-32.29-4-48.27-1.68-6.38.95-12.76,2.63-18.28,6-19.51,11.83-22.15,39.37-37.4,56.34-.87,1-5,4.85-6,5.65a178.24,178.24,0,0,0-3.83,29.65,19.83,19.83,0,0,0,.31,5.55C240.73,109,242.46,112.4,243.85,118.42Z"/><path class="cls-3" d="M209.29,85.09a8,8,0,0,0,5.54,2.58c2.17,0,4.31-.94,6.46-.62,2.67.41,4.6,2.7,6.2,4.87,5.32,7.21,10,13.67,13.87,21.28q1.3,2.51,2.49,5.22"/><path class="cls-3" d="M243.85,118.42c-1.39-6-3.12-9.45-4.17-13.69a19.83,19.83,0,0,1-.31-5.55,178.24,178.24,0,0,1,3.83-29.65q1.62-7.56,3.9-15L232.89,73.71c-2.4-10.73-3-22.72,2.94-32A49.25,49.25,0,0,0,224.34,71.8,45,45,0,0,0,199.26,46a80,80,0,0,1,16.67,27.21,31.32,31.32,0,0,1-18.67-12.81l7.21,16.83a25.19,25.19,0,0,0,4.81,7.85"/><path class="cls-3" d="M243.85,118.42s0,0,0,0"/><path class="cls-3" d="M244.26,120.32c-.13-.65-.27-1.28-.4-1.88"/><path class="cls-3" d="M241.36,113.2c-5.33-4.11-16-7.85-22.54-9.53-1.71-.44-3.62-.77-5.19.07-4,2.14-1.57,8.07-.43,12.47,1.86,7.16-1.46,14.61-5.34,20.91-1,1.62-2.06,3.23-3.08,4.86-3,4.7-5.76,9.5-6.64,14.92-1.09,6.68.9,13.48,3.43,19.76,4.5,11.17,11,21.79,20.23,29.48,17.17,14.28,41,16.6,63.27,18.31,31,2.37,62.48,4.72,92.9-1.68,2.74-.57,5.53-1.22,8.3-.82,6.87,1,11.06,7.75,15.3,13.25,6.44,8.35,15.8,15.37,26.35,15.49-7.95,2-16.32-.73-23.65-4.4s-14.23-8.35-22.08-10.71c-19.64-5.91-40.21,3.73-60.58,6.2-31.32,3.79-61.9-9.54-90.6-22.63-10.06-4.59-20.26-9.28-28.67-16.46A223.92,223.92,0,0,0,296,276c8.05,3.35,16.6,6.27,25.29,5.54,7.45-.61,14.39-3.86,21.42-6.39,11.07-4,23.37-6.29,34.54-2.58,15.24,5.07,24.77,19.82,33.08,33.56-10.93-7.84-22.4-15.91-35.69-18-14.13-2.27-28.34,2.49-42.6,3.7-20,1.69-40-3.66-58.17-12.17s-34.63-20.11-51-31.64c-6-4.25-12.12-8.54-17.1-14-7.51-8.19-12.14-18.58-15.83-29.05a174.14,174.14,0,0,1-7.62-29,147.64,147.64,0,0,1,6.35-73.15,33,33,0,0,1,7-11.36c3.85-4.06,8.68-6.88,13.59-6.37h0"/><path class="cls-3" d="M195.69,91.46c-17.3,2-37.2-8.87-49.73-21S121.43,44.42,104.87,39c-21.16-6.9-45,2.49-60.75,18.22S19.3,94.05,11.67,115C4.83,133.72-1.21,153.5.94,173.35A74.37,74.37,0,0,0,42.8,231.69c-18.84-15.15-27.36-42-20.69-65.24,5.33-18.57,21.85-35.07,41.17-34.82-5.1.65-9.49,4.19-12.24,8.53s-4.06,9.42-5,14.46c-1.94,10.26-2.42,21.4,2.51,30.6,2.8,5.23,7.18,9.47,11.9,13.06a77.89,77.89,0,0,0,27.07,13.27c-7.13-2.4-12.81-8.28-15.83-15.18s-3.53-14.71-2.41-22.15A52.91,52.91,0,0,1,133,130.43c-17.54,1.4-31.3,19.53-29.59,37,1,9.89,6,19,12.5,26.55s14.48,13.59,22.39,19.61c-9.52-8.25-9.75-22.72-8.84-35.28.59-8.21,1.47-16.77,5.87-23.73s13.39-11.73,21-8.67c11.68,4.67,16.39,20.09,26,30"/><path class="cls-3" d="M243.2,69.53c1-.8,5.17-4.68,6-5.65,15.25-17,17.89-44.51,37.4-56.34,5.52-3.35,11.9-5,18.28-6,16-2.36,32.25-.34,48.27,1.68l25,3.16c9.87,1.25,19.88,2.53,29.06,6.38,13.07,5.48,23.53,15.79,32.32,26.9A180.65,180.65,0,0,1,472.85,107c-7.25-16.35-20.47-29.53-35.49-39.24s-31.85-16.26-48.75-22.12c-11.12-3.85-23.95-7.32-34.16-1.45,10-1.19,20,4.64,25.72,13s7.62,18.75,7.52,28.85a82.86,82.86,0,0,1-25.08,58.17c7.08-10.92,14.46-23,13.12-35.92s-11.18-23.37-20.68-32.39c-8-7.55-16.18-15-25.82-20.27s-21-8.14-31.7-5.93c6.92.27,12.16,6.48,14.93,12.84,3.91,9,4.72,18.95,5.48,28.72,1.79,23.18,3.38,47.56-6.48,68.62a62.53,62.53,0,0,0-18.85-41.53c-5.54-5.34-12.74-9.81-20.4-9.19-8.24.67-14.75,6.88-21.2,12-12.78,10.24-30.23,17.31-46.23,20.81"/><path class="cls-4" d="M229,100.64a30.89,30.89,0,0,1-5-7.18c-.86,1.35-1.72,3-1,4.47S227.35,100.48,229,100.64Z"/></g></g></svg>