<?xml version="1.0" encoding="UTF-8" standalone="no"?>
<svg
   version="1.0"
   width="1024pt"
   height="1024pt"
   viewBox="0 0 1024 1024"
   preserveAspectRatio="xMidYMid"
   id="svg70"
   sodipodi:docname="1756111983.svg"
   inkscape:export-filename="../Escritorio/logo.svg"
   inkscape:export-xdpi="14.0625"
   inkscape:export-ydpi="14.0625"
   xmlns:inkscape="http://www.inkscape.org/namespaces/inkscape"
   xmlns:sodipodi="http://sodipodi.sourceforge.net/DTD/sodipodi-0.dtd"
   xmlns="http://www.w3.org/2000/svg"
   xmlns:svg="http://www.w3.org/2000/svg">
  <defs
     id="defs74" />
  <sodipodi:namedview
     id="namedview72"
     pagecolor="#ffffff"
     bordercolor="#000000"
     borderopacity="0.25"
     inkscape:showpageshadow="2"
     inkscape:pageopacity="0.0"
     inkscape:pagecheckerboard="0"
     inkscape:deskcolor="#d1d1d1"
     inkscape:document-units="pt"
     showgrid="false" />
  <g
     transform="matrix(0.15077356,0,0,-0.15077356,-256.8945,1338.6681)"
     fill="currentColor"
     stroke="none"
     id="g68">
    <path
       d="m 5059,8548 c -29,-40 -245,-329 -480,-643 -234,-313 -520,-698 -636,-855 -115,-157 -262,-356 -326,-443 -64,-87 -117,-164 -117,-171 0,-14 193,-208 295,-296 468,-406 938,-513 1350,-307 86,43 141,82 218,156 162,155 241,325 239,511 -1,157 -38,263 -132,381 -132,166 -312,227 -495,168 -57,-19 -80,-33 -125,-79 -95,-94 -127,-196 -96,-302 17,-61 69,-122 122,-144 42,-18 135,-18 177,-1 18,8 46,26 64,41 l 32,27 7,-36 c 28,-151 -111,-310 -315,-361 -47,-12 -94,-15 -170,-12 -128,5 -229,36 -338,104 -103,64 -225,165 -214,178 86,114 189,252 493,666 504,685 500,680 507,680 8,0 72,-85 537,-715 420,-568 494,-670 494,-679 0,-7 -101,-148 -209,-291 -333,-444 -766,-665 -1420,-726 -64,-6 -327,-11 -591,-10 -523,0 -628,-6 -814,-44 -390,-80 -665,-222 -912,-469 -143,-144 -232,-267 -305,-421 -23,-49 -45,-97 -50,-106 -20,-41 -70,-244 -83,-334 -22,-150 -14,-359 18,-515 14,-69 30,-136 35,-150 88,-239 144,-343 267,-496 211,-264 494,-440 839,-522 97,-23 131,-27 285,-27 196,0 274,13 447,70 200,67 351,161 511,318 163,161 278,359 324,562 27,116 29,334 4,445 -56,253 -186,465 -380,620 -262,208 -658,265 -989,143 -202,-75 -397,-271 -477,-478 -32,-83 -39,-262 -15,-355 49,-189 192,-345 375,-410 80,-28 224,-38 313,-20 148,29 291,134 315,232 26,104 1,188 -70,236 -62,41 -125,37 -222,-13 -49,-25 -91,-40 -114,-40 -51,0 -112,34 -144,81 -81,116 15,283 204,352 78,29 90,31 208,28 109,-2 134,-6 195,-30 91,-35 152,-75 217,-142 60,-62 86,-106 124,-214 24,-65 27,-90 27,-195 0,-103 -3,-131 -26,-200 -35,-106 -84,-185 -165,-268 -114,-117 -209,-177 -348,-220 -139,-44 -185,-51 -324,-51 -109,0 -153,5 -225,23 -236,62 -441,205 -598,419 -60,81 -99,159 -130,258 -105,333 -60,660 129,945 93,140 271,293 440,377 203,102 527,171 749,159 383,-21 752,-186 1030,-462 220,-218 399,-485 667,-994 136,-259 246,-417 402,-579 272,-282 562,-453 921,-542 338,-84 617,-64 942,68 334,135 645,424 785,730 21,48 44,96 49,107 38,84 78,267 91,423 30,345 -63,692 -260,965 -79,111 -259,281 -378,359 -317,208 -718,271 -1038,164 -204,-68 -317,-138 -457,-282 -227,-235 -314,-477 -280,-783 21,-191 75,-342 179,-499 54,-82 195,-226 273,-278 316,-210 682,-189 924,53 106,106 163,232 172,378 6,105 -8,175 -58,281 -44,93 -159,209 -251,253 -124,60 -258,60 -331,0 -40,-33 -77,-102 -77,-142 0,-71 59,-144 141,-173 103,-37 153,-116 129,-204 -26,-96 -134,-153 -247,-130 -147,30 -285,139 -359,285 -49,95 -65,157 -66,257 -2,138 45,260 142,370 133,151 376,243 569,217 153,-21 327,-92 448,-183 294,-221 449,-623 378,-976 -42,-210 -131,-382 -271,-526 -134,-137 -263,-218 -446,-280 -127,-43 -240,-58 -408,-51 -248,9 -468,93 -693,264 -140,106 -321,317 -411,476 -31,57 -111,262 -121,312 -5,22 -10,45 -11,50 -37,119 -51,425 -25,575 71,419 258,814 565,1200 147,184 226,291 333,450 50,74 123,181 162,238 39,57 71,107 71,111 0,4 -231,316 -512,693 -282,378 -647,867 -811,1087 -165,221 -302,401 -307,401 -4,0 -32,-33 -61,-72 z m 301,-3444 c 0,-3 -6,-20 -14,-37 -30,-65 -83,-214 -99,-277 -33,-132 -63,-297 -60,-329 1,-7 -2,-9 -6,-5 -4,5 -41,50 -83,99 -92,110 -245,258 -355,345 l -82,65 122,17 c 150,22 442,83 511,107 60,22 66,23 66,15 z"
       id="path66" />
  </g>
</svg>
